<svg width="18" height="18" viewBox="0 0 18 18" fill="none" xmlns="http://www.w3.org/2000/svg">
<path fill-rule="evenodd" clip-rule="evenodd" d="M9 1.63636C4.93318 1.63636 1.63636 4.93318 1.63636 9C1.63636 13.0668 4.93318 16.3636 9 16.3636C13.0668 16.3636 16.3636 13.0668 16.3636 9C16.3636 4.93318 13.0668 1.63636 9 1.63636ZM0 9C0 4.02944 4.02944 0 9 0C13.9706 0 18 4.02944 18 9C18 13.9706 13.9706 18 9 18C4.02944 18 0 13.9706 0 9ZM5.96687 5.96694C6.28639 5.64742 6.80444 5.64742 7.12396 5.96694L8.99996 7.84294L10.876 5.96694C11.1955 5.64742 11.7135 5.64742 12.033 5.96694C12.3526 6.28646 12.3526 6.8045 12.033 7.12402L10.157 9.00002L12.033 10.876C12.3526 11.1955 12.3526 11.7136 12.033 12.0331C11.7135 12.3526 11.1955 12.3526 10.876 12.0331L8.99996 10.1571L7.12396 12.0331C6.80444 12.3526 6.28639 12.3526 5.96687 12.0331C5.64735 11.7136 5.64735 11.1955 5.96687 10.876L7.84288 9.00002L5.96687 7.12402C5.64735 6.8045 5.64735 6.28646 5.96687 5.96694Z" fill="#75757B"/>
</svg>
